PathFileType	4	(X/Y/Z)	s07c0402.trc
DataRate	CameraRate	NumFrames	NumMarkers	Units	OrigDataRate	OrigDataStartFrame	OrigNumFrames
200	200	5	48	mm	200	1500	2000
Frame#	Time	racr			lacr			c7			jug			rlel			rdr			llel			ldr			s2			lic			ric			lasi			rasi			rpsi			lpsi			rgt			lgt			rth1			rth2			rth3			rth4			rlfc			rmfc			rsh1			rsh2			rsh3			rsh4			rlmal			rcal			rtoe			rmt5			lth1			lth2			lth4			lth3			llfc			lmfc			lsh1			lsh2			lsh3			lsh4			llmal			lcal			ltoe			lmt5			SBIKE			LBIKE			RBIKE			
		X1	Y1	Z1	X2	Y2	Z2	X3	Y3	Z3	X4	Y4	Z4	X5	Y5	Z5	X6	Y6	Z6	X7	Y7	Z7	X8	Y8	Z8	X9	Y9	Z9	X10	Y10	Z10	X11	Y11	Z11	X12	Y12	Z12	X13	Y13	Z13	X14	Y14	Z14	X15	Y15	Z15	X16	Y16	Z16	X17	Y17	Z17	X18	Y18	Z18	X19	Y19	Z19	X20	Y20	Z20	X21	Y21	Z21	X22	Y22	Z22	X23	Y23	Z23	X24	Y24	Z24	X25	Y25	Z25	X26	Y26	Z26	X27	Y27	Z27	X28	Y28	Z28	X29	Y29	Z29	X30	Y30	Z30	X31	Y31	Z31	X32	Y32	Z32	X33	Y33	Z33	X34	Y34	Z34	X35	Y35	Z35	X36	Y36	Z36	X37	Y37	Z37	X38	Y38	Z38	X39	Y39	Z39	X40	Y40	Z40	X41	Y41	Z41	X42	Y42	Z42	X43	Y43	Z43	X44	Y44	Z44	X45	Y45	Z45	X46	Y46	Z46	X47	Y47	Z47	X48	Y48	Z48	
1500	7.5000	809.196732	1370.269330	-34.465701	852.059338	1365.567776	-357.924449	839.240935	1420.222418	-201.776414	776.477004	1281.503835	-211.065463	518.892553	1150.361328	18.842730	693.094567	939.872758	-64.279358	591.712628	1182.659261	-527.832639	693.295786	927.948743	-453.881411	243.547291	1298.411584	-293.546309	426.949705	1291.601910	-417.843350	392.819525	1312.169589	-127.194366	429.155448	1210.195867	-388.407528	405.085735	1257.932285	-141.956757	273.650365	1334.626731	-243.589487	300.661773	1329.975430	-350.293534	320.594868	1206.350096	-85.371148	320.298305	1153.776802	-440.989132	430.629845	1096.794523	-71.135589	502.314412	1044.599814	-76.300627	539.835336	968.593753	-68.318416	537.203280	1067.042980	-87.026390	609.742620	845.551599	-94.643719	601.032290	832.255995	-201.745266	503.849382	751.155103	-72.008015	450.318097	683.049447	-89.371321	369.982002	646.830997	-84.670240	460.783108	673.007330	-128.695365	255.647574	563.373633	-84.490310	172.607582	555.283368	-110.999931	427.642700	416.942765	-130.134630	344.196889	416.828302	-57.037385	323.863086	1033.221529	-442.570145	349.566175	949.781315	-435.879964	383.923560	951.216822	-425.037395	329.864207	862.780346	-429.423676	319.038528	690.609992	-398.340306	299.553164	680.961813	-306.098261	219.482311	581.646871	-419.057439	190.600145	507.756613	-399.179297	112.487536	451.287164	-404.349482	191.085884	507.530782	-353.847771	20.230121	351.864257	-400.292919	-55.900475	358.600834	-364.016817	160.481098	165.771198	-360.553139	81.448342	195.688427	-421.995285	-262.880865	969.989543	-237.515746	-83.219875	79.487477	-437.442764	-83.168710	79.267599	-39.797421	
1501	7.5050	810.219360	1365.726784	-33.851047	851.164497	1365.348493	-357.295491	839.262746	1418.627589	-200.921847	775.643362	1280.348078	-211.089365	517.472132	1149.286590	18.949314	692.723571	939.873812	-64.448217	591.031912	1182.450318	-527.292616	692.971228	927.581845	-453.407922	243.267526	1300.742508	-293.985607	427.212187	1294.873538	-417.305214	391.913616	1312.426282	-126.721477	429.342514	1212.946830	-388.445415	403.865150	1258.462112	-142.123120	273.403734	1336.652135	-243.466354	300.696453	1332.615355	-349.997958	318.764893	1207.204451	-86.213017	321.632309	1155.844506	-442.162985	427.343196	1095.456131	-71.490117	497.217930	1042.552647	-74.965636	534.334662	965.421104	-68.852423	534.474426	1064.263312	-85.504311	602.154722	841.260117	-94.812054	593.883677	827.985673	-201.629247	497.094904	744.873216	-72.619648	445.590378	675.568528	-89.970430	365.963628	637.498596	-85.894721	456.584829	665.454901	-129.182513	254.128474	552.083740	-85.846043	172.322189	539.516866	-113.578210	433.640997	412.925756	-128.594878	350.278862	409.920738	-55.755580	328.301984	1034.715294	-442.741575	356.224654	952.009590	-435.313200	390.319338	954.500391	-423.831642	338.984574	865.068308	-430.136379	330.881900	691.344977	-398.340297	311.007152	681.751219	-306.496416	227.701875	585.183524	-419.358777	195.142145	512.193816	-399.050585	115.557408	459.120705	-405.054521	194.323998	511.801247	-353.440901	19.263236	362.222468	-401.295194	-57.021935	370.795071	-364.346393	153.268889	171.369804	-360.219262	75.550498	203.515454	-421.305495	-262.831269	970.025741	-237.344782	-83.202858	79.599358	-437.466767	-83.141937	79.262420	-39.791265	
1502	7.5100	811.211800	1361.155332	-33.428814	850.105217	1365.485109	-356.952473	839.194591	1417.251887	-200.114990	774.929125	1279.323283	-211.188298	516.181813	1148.042615	19.221548	692.314185	939.774500	-64.686516	590.295229	1182.298692	-526.770331	692.652427	927.387614	-453.196507	242.899534	1302.815255	-294.217779	427.534299	1297.933062	-416.871381	390.976307	1312.447046	-126.086927	429.544006	1215.496644	-388.310450	401.899401	1258.535130	-142.255080	273.085624	1338.368847	-243.499110	300.737693	1334.742776	-349.683257	316.842349	1207.710470	-86.940094	323.144271	1157.826567	-443.490085	423.659454	1093.803379	-71.360303	492.707618	1039.438126	-75.016193	527.960379	961.778576	-69.133600	521.858995	1059.514713	-91.162317	594.424644	836.691745	-94.929013	586.295151	823.605106	-201.557464	490.237542	738.036602	-73.174396	440.795938	667.203187	-90.882402	362.372143	627.274877	-87.255321	452.706144	657.659015	-129.339654	253.788395	539.483886	-88.142074	173.048557	524.266084	-116.134973	439.278940	407.772584	-127.243272	354.635617	401.857108	-56.051066	333.081026	1036.168540	-442.851324	363.318653	954.360294	-434.509685	397.002335	957.851788	-422.185551	348.584517	866.802398	-429.768960	342.475468	692.509430	-398.563220	322.639199	683.065375	-306.696537	235.987157	589.237450	-419.574774	199.940734	516.806256	-399.012735	119.210348	467.295163	-405.798630	198.151056	516.321725	-353.236876	19.440585	372.456497	-402.425941	-56.844685	383.640919	-364.822212	146.574141	177.051904	-359.716691	70.261475	211.658408	-420.665104	-262.700557	970.128559	-237.134223	-83.213166	79.692786	-437.440298	-83.169174	79.306884	-39.739449	
1503	7.5150	812.090183	1356.701678	-33.384154	848.997969	1365.968038	-356.548669	839.043150	1416.043760	-199.396053	774.271404	1278.497408	-211.597085	515.063304	1146.908150	19.629190	691.968577	939.631761	-64.946157	589.619862	1182.206724	-526.434158	692.284500	927.095460	-452.835009	242.553705	1304.534507	-294.557440	427.745145	1300.707574	-416.289124	389.949953	1312.239167	-125.343256	429.785853	1217.836586	-388.215468	400.641155	1258.683773	-142.283330	272.716392	1339.815439	-243.456728	300.851407	1336.690212	-349.337389	314.776235	1207.766366	-87.708710	324.811277	1159.718715	-444.750956	420.148995	1091.628914	-71.886745	488.107927	1036.118935	-75.111416	521.637234	957.663351	-69.425040	522.051236	1055.438153	-88.752785	586.658747	831.789935	-95.162061	579.074596	818.837283	-201.484420	483.747377	730.737245	-73.817907	437.007824	658.170578	-91.748765	358.975757	616.415797	-89.320890	448.963587	649.291546	-130.275128	254.094573	526.411797	-90.548295	174.003941	509.400903	-118.224571	444.324005	401.483456	-126.442912	359.344910	393.553097	-56.014055	338.103549	1037.616074	-442.982896	370.698818	956.781940	-433.612961	403.898583	961.269310	-420.354347	358.556200	868.532668	-428.997046	353.762922	694.259914	-398.740333	334.230591	684.570907	-306.741409	244.356666	593.238090	-419.638890	204.854613	521.569302	-399.056863	123.417706	475.304183	-406.415014	202.493055	521.075003	-353.244713	20.884583	382.422858	-403.571710	-55.547177	396.517837	-365.468181	140.549098	182.741774	-359.483237	65.867871	219.784906	-420.396903	-262.455094	970.308222	-236.893038	-83.214005	79.811284	-437.422883	-83.146732	79.328273	-39.722325	
1504	7.5200	812.821467	1352.751579	-33.520630	847.997359	1366.909607	-356.849167	838.821812	1415.068175	-198.750442	773.824452	1277.718559	-212.112683	514.105788	1145.665562	20.173807	691.698793	939.399462	-65.165367	589.017914	1182.126030	-526.215479	691.889529	926.815002	-452.555025	242.353495	1305.794606	-295.060056	427.977026	1303.064015	-415.534428	389.083308	1311.933197	-124.521160	430.041771	1219.932552	-387.994267	399.241572	1258.423581	-142.155262	272.224251	1341.014359	-243.279480	301.047856	1337.891315	-348.735298	312.477998	1207.523407	-88.455631	326.689235	1161.505854	-446.136576	416.639962	1089.484206	-72.537676	483.365956	1032.651373	-75.224262	515.233364	953.350876	-69.860984	511.985663	1052.745959	-90.414837	578.828656	827.022291	-95.077235	572.300225	814.159345	-201.212471	477.667628	724.088398	-74.589578	432.814598	650.040416	-93.317432	357.051938	605.678364	-91.489570	446.182059	641.376681	-131.347834	255.106009	513.317751	-92.356139	175.713574	494.851185	-119.300045	448.819234	394.504857	-126.323370	363.982824	384.783946	-56.134377	343.311476	1039.048824	-443.176648	378.134713	959.183648	-432.701951	410.813189	964.776125	-418.590317	368.426651	870.659889	-428.251751	364.635415	696.379227	-399.106790	345.408931	686.322217	-306.628989	252.690281	597.258740	-419.679419	209.775189	526.457282	-399.162430	128.246610	482.907426	-406.889847	207.258867	526.031002	-353.451305	23.172373	392.055070	-404.612110	-53.014938	409.594801	-366.214378	135.105762	188.512945	-359.645430	62.144429	227.860113	-420.142943	-262.197004	970.442847	-236.669584	-83.208428	79.906304	-437.386784	-83.168309	79.431933	-39.708744	
